# xmcd
# 
# Track frame offsets:
#     187
#     21187
#     41550
#     64237
#     85687
#     107812
#     125887
#     149092
#     163312
#     182475
#     206025
#     228037
#     246937
#     267787
#     293437
# 
# Disc length: 4116
# 
# Revision: 49
# Processed by: cddbd v1.5.2PL0 Copyright (c) Steve Scherf et al.
# Submitted via: fre:ac v1.0.31
# 
DISCID=db10120f
DTITLE=サザンオールスターズ - 海のYeah!!, Disc 2
DYEAR=1998
DGENRE=J-Pop
TTITLE0=真夏の果実
TTITLE1=You
TTITLE2=シュラバ★ラ★バンバ Shulaba-La-Bamba
TTITLE3=涙のキッス
TTITLE4=さよならベイビー
TTITLE5=エロティカ・セブン Erotica Seven
TTITLE6=素敵なバーディー (No No Birdy)
TTITLE7=そんなヒロシに騙されて
TTITLE8=マンピーのG★SPOT
TTITLE9=あなただけを ～Summer Heartbreak～
TTITLE10=Moon Light Lover
TTITLE11=太陽は罪な奴
TTITLE12=恋のジャック・ナイフ
TTITLE13=愛の言霊 ～Spiritual Message～
TTITLE14=平和の琉歌
EXTD=YEAR: 1998
EXTT0=
EXTT1=
EXTT2=
EXTT3=
EXTT4=
EXTT5=
EXTT6=
EXTT7=
EXTT8=
EXTT9=
EXTT10=
EXTT11=
EXTT12=
EXTT13=
EXTT14=
PLAYORDER=
